Coordinates
version=1
nRows=6
nColumns=63
inDegrees=yes

Units are S.I. units (second, meters, Newtons, ...)
If the header above contains a line with 'inDegrees', this indicates whether rotational values are in degrees (yes) or radians (no).

endheader
time	pelvis_tilt	pelvis_list	pelvis_rotation	pelvis_tx	pelvis_ty	pelvis_tz	hip_flexion_r	hip_adduction_r	hip_rotation_r	knee_angle_r	knee_angle_r_beta	ankle_angle_r	subtalar_angle_r	mtp_angle_r	hip_flexion_l	hip_adduction_l	hip_rotation_l	knee_angle_l	knee_angle_l_beta	ankle_angle_l	subtalar_angle_l	mtp_angle_l	L5_S1_Flex_Ext	L5_S1_Lat_Bending	L5_S1_axial_rotation	L4_L5_Flex_Ext	L4_L5_Lat_Bending	L4_L5_axial_rotation	L3_L4_Flex_Ext	L3_L4_Lat_Bending	L3_L4_axial_rotation	L2_L3_Flex_Ext	L2_L3_Lat_Bending	L2_L3_axial_rotation	L1_L2_Flex_Ext	L1_L2_Lat_Bending	L1_L2_axial_rotation	L1_T12_Flex_Ext	L1_T12_Lat_Bending	L1_T12_axial_rotation	Abs_r3	Abs_r2	Abs_r1	Abs_t1	Abs_t2	neck_flexion	neck_bending	neck_rotation	arm_flex_r	arm_add_r	arm_rot_r	elbow_flex_r	pro_sup_r	wrist_flex_r	wrist_dev_r	arm_flex_l	arm_add_l	arm_rot_l	elbow_flex_l	pro_sup_l	wrist_flex_l	wrist_dev_l
3.000000	2.908026	-2.602158	82.074641	0.220308	0.708567	0.466103	-3.955678	6.109600	5.528839	8.564930	0.149486	30.689712	-12.527190	0.000000	-5.331516	-3.149531	-1.388104	9.395819	0.163988	35.935935	-2.816968	0.000000	-0.023967	0.633856	-0.562466	-0.044508	0.843029	-0.597621	-0.039375	1.541158	-0.597621	-0.027391	1.541158	-0.492158	-0.022255	1.292560	-0.457004	-0.013695	0.981843	-0.421850	-0.171191	7.170310	-3.128269	0.000000	0.000000	3.069924	8.679358	-12.817236	4.372459	-2.230435	34.425710	42.715899	84.306098	0.073287	20.195669	8.970005	-1.295907	49.330376	37.403559	87.264766	7.604057	20.053232
3.016667	2.938735	-2.572642	81.944214	0.220916	0.708433	0.466185	-3.975699	6.158550	5.440236	8.676102	0.151427	30.922445	-12.260036	0.000000	-5.430204	-3.146226	-1.098583	9.305369	0.162409	35.875993	-3.380840	0.000000	-0.034622	0.634710	-0.486203	-0.064297	0.844164	-0.516590	-0.056881	1.543233	-0.516590	-0.039570	1.543233	-0.425427	-0.032150	1.294300	-0.395040	-0.019783	0.983165	-0.364652	-0.247303	7.179963	-2.704114	0.000000	0.000000	3.739721	8.633963	-11.376405	3.927349	-2.188194	32.995878	43.258384	83.986791	-0.043708	20.650906	9.345376	-1.183245	49.987012	37.109153	86.924398	7.949176	19.509238
3.033333	3.010742	-2.524795	81.943002	0.221356	0.708258	0.466369	-4.022894	6.263230	5.284485	8.760930	0.152907	31.113596	-12.061762	0.000000	-5.527830	-3.201663	-0.725340	9.231212	0.161115	35.805760	-3.933211	0.000000	-0.047704	0.638131	-0.413884	-0.088591	0.848715	-0.439751	-0.078373	1.551553	-0.439751	-0.054521	1.551553	-0.362148	-0.044298	1.301278	-0.336280	-0.027258	0.988466	-0.310413	-0.340744	7.218671	-2.301896	0.000000	0.000000	4.462653	8.489851	-9.991727	3.530186	-2.185826	31.680063	43.769834	83.738370	0.051625	21.383662	9.881268	-1.073706	51.039672	36.738955	86.617600	8.528462	19.046895
3.050000	3.107082	-2.465935	82.112696	0.221635	0.708001	0.466649	-4.093262	6.416500	5.044931	8.801934	0.153623	31.240145	-11.989064	0.000000	-5.613718	-3.309452	-0.255799	9.162618	0.159918	35.738186	-4.437230	0.000000	-0.061911	0.641459	-0.362742	-0.114975	0.853140	-0.385414	-0.101713	1.559643	-0.385414	-0.070758	1.559643	-0.317400	-0.057490	1.308063	-0.294728	-0.035376	0.993620	-0.272057	-0.442223	7.256312	-2.017464	0.000000	0.000000	5.228541	8.205405	-8.705998	3.181982	-2.199113	30.472825	44.254291	83.778484	0.395169	22.356501	10.459011	-1.014726	52.080253	36.421836	86.405589	9.458650	18.911402
3.066667	3.234565	-2.397938	82.476145	0.221705	0.707705	0.467081	-4.182739	6.624622	4.672861	8.794635	0.153495	31.264163	-12.021008	0.000000	-5.677276	-3.482934	0.266600	9.099632	0.158819	35.669915	-4.814427	0.000000	-0.076681	0.645818	-0.338518	-0.142404	0.858938	-0.359675	-0.125979	1.570242	-0.359675	-0.087639	1.570242	-0.296203	-0.071206	1.316953	-0.275046	-0.043816	1.000372	-0.253888	-0.547725	7.305625	-1.882734	0.000000	0.000000	5.987963	7.750354	-7.572917	2.973829	-2.295132	29.692935	44.679544	83.629770	0.766505	23.379338	11.163231	-1.011555	53.536067	36.144625	86.259134	10.202396	18.738669
3.083333	3.373773	-2.331833	82.992395	0.221672	0.707337	0.467667	-4.269230	6.866239	4.200265	8.771306	0.153088	31.160060	-12.194106	0.000000	-5.711372	-3.700870	0.804886	9.051385	0.157976	35.596946	-5.074026	0.000000	-0.091354	0.648181	-0.337279	-0.169654	0.862080	-0.358359	-0.150086	1.575986	-0.358359	-0.104409	1.575986	-0.295119	-0.084832	1.321770	-0.274039	-0.052200	1.004032	-0.252960	-0.652536	7.332348	-1.875847	0.000000	0.000000	6.758868	7.190179	-6.566225	2.889152	-2.450072	29.319541	45.058874	83.382334	1.054352	24.342594	11.894966	-1.039916	55.029437	35.965770	86.202405	10.952609	18.748178
